<mxfile host="app.diagrams.net" modified="2023-12-08T10:49:19.959Z" agent="Mozilla/5.0 (Windows NT 10.0; Win64; x64) AppleWebKit/537.36 (KHTML, like Gecko) Chrome/119.0.0.0 Safari/537.36" version="22.1.7" etag="q4w-ix1-w22KtAI1urpJ" type="github">
  <diagram name="第 1 页" id="4jH5QX8MO3mS28_7WMJf">
    <mxGraphModel>
      <root>
        <mxCell id="0" />
        <mxCell id="1" parent="0" />
      </root>
    </mxGraphModel>
  </diagram>
</mxfile>
